# xmcd
#
# Track frame offsets:
#	225
#	13960
#	27716
#	39917
#	52098
#	65785
#	79449
#	90884
#	102315
#	113612
#	124902
#	136931
#	148889
#	161288
#	173682
#	186686
#	199602
#	211601
#	223621
#	235177
#	246735
#	251544
#	256507
#	261466
#	266272
#	271081
#	275910
#	280718
#	285511
#	290333
#	295192
#	297714
#	300427
#	303027
#	305579
#	308105
#	310672
#	313228
#	315784
#	318371
#	320888
#	322343
#	323928
#	325423
#	326804
#	328241
#	329638
#	331087
#	332428
#	333894
#
# Disc length: 4467 seconds
#
# Revision: 1
# Processed by: cddbd v1.5.2PL0 Copyright (c) Steve Scherf et al.
# Submitted via: audiograbber 1.83.01
#
DISCID=0f117032
DTITLE=Westar Music - WSR241
DYEAR=2006
DGENRE=Country
TTITLE0=Someone Like Me
TTITLE1=Someone Like Me
TTITLE2=Comfort of Home
TTITLE3=Comfort of Home
TTITLE4=Cool Summer Night
TTITLE5=Cool Summer Night
TTITLE6=Dancing in My Dreams
TTITLE7=Dancing in My Dreams
TTITLE8=Days Gone By
TTITLE9=Days Gone By
TTITLE10=Old Hound Dog Shuffle
TTITLE11=Old Hound Dog Shuffle
TTITLE12=Left Me for Good and Thats Bad
TTITLE13=Left Me for Good and Thats Bad
TTITLE14=Rope Swing Ride
TTITLE15=Rope Swing Ride
TTITLE16=My Old Flame
TTITLE17=My Old Flame
TTITLE18=Relax and Sit a Spell
TTITLE19=Relax and Sit a Spell
TTITLE20=Someone Like Me
TTITLE21=Comfort of Home
TTITLE22=Cool Summer Night
TTITLE23=Dancing in My Dreams
TTITLE24=Days Gone By
TTITLE25=Old Hound Dog Shuffle
TTITLE26=Left Me for Good and Thats Bad
TTITLE27=Rope Swing Ride
TTITLE28=My Old Flame
TTITLE29=Relax and Sit a Spell
TTITLE30=Someone Like Me
TTITLE31=Comfort of Home
TTITLE32=Cool Summer Night
TTITLE33=Dancing in My Dreams
TTITLE34=Days Gone By
TTITLE35=Old Hound Dog Shuffle
TTITLE36=Left Me for Good and Thats Bad
TTITLE37=Rope Swing Ride
TTITLE38=My Old Flame
TTITLE39=Relax and Sit a Spell
TTITLE40=Someone Like Me
TTITLE41=Comfort of Home
TTITLE42=Cool Summer Night
TTITLE43=Dancing in My Dreams
TTITLE44=Days Gone By
TTITLE45=Old Hound Dog Shuffle
TTITLE46=Left Me for Good and Thats Bad
TTITLE47=Rope Swing Ride
TTITLE48=My Old Flame
TTITLE49=Relax and Sit a Spell
EXTD=Easy Acoustic Country Stylings\nAll Music Composed by Kelly Richmond (SOCA
EXTD=N]\nAll Music Published by Westar Music Publishing (SOCAN)
EXTT0=Dancing, Toe Tapping, Playful
EXTT1=Dancing, Toe Tapping, Playful\n
EXTT2=Casual, Soothing, Pastoral
EXTT3=Casual, Soothing, Pastoral\n
EXTT4=Comfortable, Relaxed, Sincere
EXTT5=Comfortable, Relaxed, Sincere\n
EXTT6=Laid Back, Leisurely, Strolling
EXTT7=Laid Back, Leisurely, Strolling\n
EXTT8=Sentimental, Nostalgic, Mellow
EXTT9=Sentimental, Nostalgic, Mellow\n
EXTT10=Rhythmic, Spunky, Bouncy
EXTT11=Rhythmic, Spunky, Bouncy\n
EXTT12=Expressive, Complaining, Plaintive
EXTT13=Expressive, Complaining, Plaintive\n
EXTT14=Easygoing, Friendly, Jug Band Feel
EXTT15=Easygoing, Friendly, Jug Band Feel\n
EXTT16=Reflective, Caressing, Calm
EXTT17=Reflective, Caressing, Calm\n
EXTT18=Reminiscing, Innocent, Warm
EXTT19=Reminiscing, Innocent, Warm\n
EXTT20=Dancing, Toe Tapping, Playful\n
EXTT21=Casual, Soothing, Pastoral\n
EXTT22=Comfortable, Relaxed, Sincere\n
EXTT23=Laid Back, Leisurely, Strolling\n
EXTT24=Sentimental, Nostalgic, Mellow\n
EXTT25=Rhythmic, Spunky, Bouncy\n
EXTT26=Expressive, Complaining, Plaintive\n
EXTT27=Easygoing, Friendly, Jug Band Feel\n
EXTT28=Reflective, Caressing, Calm\n
EXTT29=Reminiscing, Innocent, Warm\n
EXTT30=Dancing, Toe Tapping, Playful\n
EXTT31=Casual, Soothing, Pastoral\n
EXTT32=Comfortable, Relaxed, Sincere\n
EXTT33=Laid Back, Leisurely, Strolling\n
EXTT34=Sentimental, Nostalgic, Mellow\n
EXTT35=Rhythmic, Spunky, Bouncy\n
EXTT36=Expressive, Complaining, Plaintive\n
EXTT37=Easygoing, Friendly, Jug Band Feel\n
EXTT38=Reflective, Caressing, Calm\n
EXTT39=Reminiscing, Innocent, Warm\n
EXTT40=Dancing, Toe Tapping, Playful\n
EXTT41=Casual, Soothing, Pastoral\n
EXTT42=Comfortable, Relaxed, Sincere\n
EXTT43=Laid Back, Leisurely, Strolling\n
EXTT44=Sentimental, Nostalgic, Mellow\n
EXTT45=Rhythmic, Spunky, Bouncy\n
EXTT46=Expressive, Complaining, Plaintive\n
EXTT47=Easygoing, Friendly, Jug Band Feel\n
EXTT48=Reflective, Caressing, Calm\n
EXTT49=Reminiscing, Innocent, Warm\n
PLAYORDER=
